#Comment line ignore any data following # character 
#Hierarchical Translation and Rotation (.htr) file 
[Header]	
#Header keywords are followed by a single value 
FileType HTR		#Single word string
DataType HTRS		#Translation followed by rotation and scale data
FileVersion 1		#integer
NumSegments 84		#integer
NumFrames 2		#integer
DataFrameRate 30		#integer, data frame rate in this file
EulerRotationOrder ZYX
CalibrationUnits mm
RotationUnits Degrees
GlobalAxisofGravity Y
BoneLengthAxis Y
ScaleFactor 1.00
[SegmentNames&Hierarchy]
#CHILD	PARENT
MASTER GLOBAL
root MASTER
chest root
L_mid_tent01 root
R_mid_tent01 root
spine01 root
Bip01_Neck chest
L_humerus chest
R_humerus chest
weapon_bone chest
Bip01_Head Bip01_Neck
eye_left_bone Bip01_Head
eye_right_bone Bip01_Head
L_forearm L_humerus
L_front_hand L_forearm
L_weapon_bone L_forearm
L_front_hand01_01 L_front_hand
L_front_hand02_01 L_front_hand
L_front_hand03_01 L_front_hand
L_front_hand01_02 L_front_hand01_01
L_front_hand02_02 L_front_hand02_01
L_front_hand03_02 L_front_hand03_01
R_forearm R_humerus
R_front_hand R_forearm
R_weapon_bone R_forearm
R_front_hand01_01 R_front_hand
R_front_hand02_01 R_front_hand
R_front_hand03_01 R_front_hand
R_front_hand01_02 R_front_hand01_01
R_front_hand02_02 R_front_hand02_01
R_front_hand03_02 R_front_hand03_01
null_rope01_connect L_mid_tent01
Rope1_Seg01 null_rope01_connect
Rope1_Seg02 Rope1_Seg01
Rope1_Seg03 Rope1_Seg02
Rope1_Seg04 Rope1_Seg03
Rope1_Seg05 Rope1_Seg04
Rope1_Seg06 Rope1_Seg05
Rope1_Seg07 Rope1_Seg06
Rope1_Seg09 Rope1_Seg07
L_mid_hand01 Rope1_Seg09
L_mid_hand02 Rope1_Seg09
L_mid_hand03 Rope1_Seg09
null_rope02_connect R_mid_tent01
Rope2_Seg01 null_rope02_connect
Rope2_Seg02 Rope2_Seg01
Rope2_Seg03 Rope2_Seg02
Rope2_Seg04 Rope2_Seg03
Rope2_Seg05 Rope2_Seg04
Rope2_Seg06 Rope2_Seg05
Rope2_Seg07 Rope2_Seg06
Rope2_Seg09 Rope2_Seg07
R_mid_hand01 Rope2_Seg09
R_mid_hand02 Rope2_Seg09
R_mid_hand03 Rope2_Seg09
spine02 spine01
spine03 spine02
pelvis spine03
null_rope03_connect pelvis
null_rope04_connect pelvis
Rope3_Seg01 null_rope03_connect
Rope3_Seg02 Rope3_Seg01
Rope3_Seg03 Rope3_Seg02
Rope3_Seg04 Rope3_Seg03
Rope3_Seg05 Rope3_Seg04
Rope3_Seg06 Rope3_Seg05
Rope3_Seg07 Rope3_Seg06
Rope3_Seg08 Rope3_Seg07
Rope3_Seg09 Rope3_Seg08
R_rear_hand01 Rope3_Seg09
R_rear_hand02 Rope3_Seg09
R_rear_hand03 Rope3_Seg09
Rope4_Seg01 null_rope04_connect
Rope4_Seg02 Rope4_Seg01
Rope4_Seg03 Rope4_Seg02
Rope4_Seg04 Rope4_Seg03
Rope4_Seg05 Rope4_Seg04
Rope4_Seg06 Rope4_Seg05
Rope4_Seg07 Rope4_Seg06
Rope4_Seg08 Rope4_Seg07
Rope4_Seg09 Rope4_Seg08
L_rear_hand01 Rope4_Seg09
L_rear_hand02 Rope4_Seg09
L_rear_hand03 Rope4_Seg09
[BasePosition]
#SegmentName Tx, Ty, Tz, Rx, Ry, Rz, BoneLength
MASTER 0.000000 0.000000 0.000000 -90.000000 0.000000 0.000000 10.000000 
root 0.000000 0.000000 0.000000 0.000000 0.000000 0.000000 10.000000 
chest 0.000000 0.000000 0.000000 0.000000 0.000000 0.000000 10.000000 
L_mid_tent01 0.000000 0.000000 0.000000 0.000000 0.000000 0.000000 10.000000 
R_mid_tent01 0.000000 0.000000 0.000000 0.000000 0.000000 0.000000 10.000000 
spine01 0.000000 0.000000 0.000000 0.000000 0.000000 0.000000 10.000000 
Bip01_Neck 0.000000 0.000000 0.000000 0.000000 0.000000 0.000000 10.000000 
L_humerus 0.000000 0.000000 0.000000 0.000000 0.000000 0.000000 10.000000 
R_humerus 0.000000 0.000000 0.000000 0.000000 0.000000 0.000000 10.000000 
weapon_bone 0.000000 0.000000 0.000000 0.000000 0.000000 0.000000 10.000000 
Bip01_Head 0.000000 0.000000 0.000000 0.000000 0.000000 0.000000 10.000000 
eye_left_bone 0.000000 0.000000 0.000000 0.000000 0.000000 0.000000 10.000000 
eye_right_bone 0.000000 0.000000 0.000000 0.000000 0.000000 0.000000 10.000000 
L_forearm 0.000000 0.000000 0.000000 0.000000 0.000000 0.000000 10.000000 
L_front_hand 0.000000 0.000000 0.000000 0.000000 0.000000 0.000000 10.000000 
L_weapon_bone 0.000000 0.000000 0.000000 0.000000 0.000000 0.000000 10.000000 
L_front_hand01_01 0.000000 0.000000 0.000000 0.000000 0.000000 0.000000 10.000000 
L_front_hand02_01 0.000000 0.000000 0.000000 0.000000 0.000000 0.000000 10.000000 
L_front_hand03_01 0.000000 0.000000 0.000000 0.000000 0.000000 0.000000 10.000000 
L_front_hand01_02 0.000000 0.000000 0.000000 0.000000 0.000000 0.000000 10.000000 
L_front_hand02_02 0.000000 0.000000 0.000000 0.000000 0.000000 0.000000 10.000000 
L_front_hand03_02 0.000000 0.000000 0.000000 0.000000 0.000000 0.000000 10.000000 
R_forearm 0.000000 0.000000 0.000000 0.000000 0.000000 0.000000 10.000000 
R_front_hand 0.000000 0.000000 0.000000 0.000000 0.000000 0.000000 10.000000 
R_weapon_bone 0.000000 0.000000 0.000000 0.000000 0.000000 0.000000 10.000000 
R_front_hand01_01 0.000000 0.000000 0.000000 0.000000 0.000000 0.000000 10.000000 
R_front_hand02_01 0.000000 0.000000 0.000000 0.000000 0.000000 0.000000 10.000000 
R_front_hand03_01 0.000000 0.000000 0.000000 0.000000 0.000000 0.000000 10.000000 
R_front_hand01_02 0.000000 0.000000 0.000000 0.000000 0.000000 0.000000 10.000000 
R_front_hand02_02 0.000000 0.000000 0.000000 0.000000 0.000000 0.000000 10.000000 
R_front_hand03_02 0.000000 0.000000 0.000000 0.000000 0.000000 0.000000 10.000000 
null_rope01_connect 0.000000 0.000000 0.000000 0.000000 0.000000 0.000000 10.000000 
Rope1_Seg01 0.000000 0.000000 0.000000 0.000000 0.000000 0.000000 10.000000 
Rope1_Seg02 0.000000 0.000000 0.000000 0.000000 0.000000 0.000000 10.000000 
Rope1_Seg03 0.000000 0.000000 0.000000 0.000000 0.000000 0.000000 10.000000 
Rope1_Seg04 0.000000 0.000000 0.000000 0.000000 0.000000 0.000000 10.000000 
Rope1_Seg05 0.000000 0.000000 0.000000 0.000000 0.000000 0.000000 10.000000 
Rope1_Seg06 0.000000 0.000000 0.000000 0.000000 0.000000 0.000000 10.000000 
Rope1_Seg07 0.000000 0.000000 0.000000 0.000000 0.000000 0.000000 10.000000 
Rope1_Seg09 0.000000 0.000000 0.000000 0.000000 0.000000 0.000000 10.000000 
L_mid_hand01 0.000000 0.000000 0.000000 0.000000 0.000000 0.000000 10.000000 
L_mid_hand02 0.000000 0.000000 0.000000 0.000000 0.000000 0.000000 10.000000 
L_mid_hand03 0.000000 0.000000 0.000000 0.000000 0.000000 0.000000 10.000000 
null_rope02_connect 0.000000 0.000000 0.000000 0.000000 0.000000 0.000000 10.000000 
Rope2_Seg01 0.000000 0.000000 0.000000 0.000000 0.000000 0.000000 10.000000 
Rope2_Seg02 0.000000 0.000000 0.000000 0.000000 0.000000 0.000000 10.000000 
Rope2_Seg03 0.000000 0.000000 0.000000 0.000000 0.000000 0.000000 10.000000 
Rope2_Seg04 0.000000 0.000000 0.000000 0.000000 0.000000 0.000000 10.000000 
Rope2_Seg05 0.000000 0.000000 0.000000 0.000000 0.000000 0.000000 10.000000 
Rope2_Seg06 0.000000 0.000000 0.000000 0.000000 0.000000 0.000000 10.000000 
Rope2_Seg07 0.000000 0.000000 0.000000 0.000000 0.000000 0.000000 10.000000 
Rope2_Seg09 0.000000 0.000000 0.000000 0.000000 0.000000 0.000000 10.000000 
R_mid_hand01 0.000000 0.000000 0.000000 0.000000 0.000000 0.000000 10.000000 
R_mid_hand02 0.000000 0.000000 0.000000 0.000000 0.000000 0.000000 10.000000 
R_mid_hand03 0.000000 0.000000 0.000000 0.000000 0.000000 0.000000 10.000000 
spine02 0.000000 0.000000 0.000000 0.000000 0.000000 0.000000 10.000000 
spine03 0.000000 0.000000 0.000000 0.000000 0.000000 0.000000 10.000000 
pelvis 0.000000 0.000000 0.000000 0.000000 0.000000 0.000000 10.000000 
null_rope03_connect 0.000000 0.000000 0.000000 0.000000 0.000000 0.000000 10.000000 
null_rope04_connect 0.000000 0.000000 0.000000 0.000000 0.000000 0.000000 10.000000 
Rope3_Seg01 0.000000 0.000000 0.000000 0.000000 0.000000 0.000000 10.000000 
Rope3_Seg02 0.000000 0.000000 0.000000 0.000000 0.000000 0.000000 10.000000 
Rope3_Seg03 0.000000 0.000000 0.000000 0.000000 0.000000 0.000000 10.000000 
Rope3_Seg04 0.000000 0.000000 0.000000 0.000000 0.000000 0.000000 10.000000 
Rope3_Seg05 0.000000 0.000000 0.000000 0.000000 0.000000 0.000000 10.000000 
Rope3_Seg06 0.000000 0.000000 0.000000 0.000000 0.000000 0.000000 10.000000 
Rope3_Seg07 0.000000 0.000000 0.000000 0.000000 0.000000 0.000000 10.000000 
Rope3_Seg08 0.000000 0.000000 0.000000 0.000000 0.000000 0.000000 10.000000 
Rope3_Seg09 0.000000 0.000000 0.000000 0.000000 0.000000 0.000000 10.000000 
R_rear_hand01 0.000000 0.000000 0.000000 0.000000 0.000000 0.000000 10.000000 
R_rear_hand02 0.000000 0.000000 0.000000 0.000000 0.000000 0.000000 10.000000 
R_rear_hand03 0.000000 0.000000 0.000000 0.000000 0.000000 0.000000 10.000000 
Rope4_Seg01 0.000000 0.000000 0.000000 0.000000 0.000000 0.000000 10.000000 
Rope4_Seg02 0.000000 0.000000 0.000000 0.000000 0.000000 0.000000 10.000000 
Rope4_Seg03 0.000000 0.000000 0.000000 0.000000 0.000000 0.000000 10.000000 
Rope4_Seg04 0.000000 0.000000 0.000000 0.000000 0.000000 0.000000 10.000000 
Rope4_Seg05 0.000000 0.000000 0.000000 0.000000 0.000000 0.000000 10.000000 
Rope4_Seg06 0.000000 0.000000 0.000000 0.000000 0.000000 0.000000 10.000000 
Rope4_Seg07 0.000000 0.000000 0.000000 0.000000 0.000000 0.000000 10.000000 
Rope4_Seg08 0.000000 0.000000 0.000000 0.000000 0.000000 0.000000 10.000000 
Rope4_Seg09 0.000000 0.000000 0.000000 0.000000 0.000000 0.000000 10.000000 
L_rear_hand01 0.000000 0.000000 0.000000 0.000000 0.000000 0.000000 10.000000 
L_rear_hand02 0.000000 0.000000 0.000000 0.000000 0.000000 0.000000 10.000000 
L_rear_hand03 0.000000 0.000000 0.000000 0.000000 0.000000 0.000000 10.000000 
#Beginning of Data. Separated by tabs
#Fr	Tx	Ty	Tz	Rx	Ry	Rz	SF
[MASTER]
39 0.000000 0.000000 0.000000 0.000000 -0.002347 -90.000000 0.000000
40 0.000000 0.000000 0.000000 0.000000 -0.002347 -90.000000 0.000000
[root]
39 -14.348905 -43.716976 472.594574 -88.582230 -10.448836 179.361130 474.829102
40 -14.348906 -25.668554 472.594574 -88.582230 -10.448837 179.361130 473.508575
[chest]
39 -84.512650 -34.090519 0.000000 -2.953950 3.581518 179.643631 91.129311
40 -84.512650 -34.090519 0.000000 -4.144069 3.597279 179.739426 91.129311
[L_mid_tent01]
39 27.299511 22.177458 -249.918259 -63.657543 18.686338 33.262241 252.381134
40 27.299511 22.177458 -249.918259 -63.657536 18.686338 33.262241 252.381134
[R_mid_tent01]
39 23.228794 24.509907 226.238495 -131.259216 -15.836094 39.582561 228.744751
40 23.228794 24.509907 226.238495 -131.259216 -15.836094 39.582561 228.744751
[spine01]
39 -0.361383 -0.195265 0.000000 0.001845 0.001451 13.654368 0.410763
40 -0.361383 -0.195265 0.000000 0.001845 0.001451 13.654368 0.410763
[Bip01_Neck]
39 165.484543 71.581718 0.000119 176.643677 -1.657967 43.431911 180.302734
40 165.484543 71.581718 0.000119 176.643677 -1.657967 43.431911 180.302734
[L_humerus]
39 -13.983130 -135.272980 -120.471481 125.603996 52.129765 -155.020416 181.680161
40 -13.983130 -135.272980 -120.471481 135.431717 44.899982 -143.944580 181.680161
[R_humerus]
39 -13.983309 -135.273102 125.287651 -130.609085 -42.850063 -157.731644 184.909012
40 -13.983309 -135.273102 125.287651 -138.670578 -36.592800 -147.917877 184.909012
[weapon_bone]
39 235.964890 -300.705902 0.000000 0.000000 -89.951546 -128.212341 382.234833
40 235.964890 -300.705902 0.000000 0.000000 -89.951546 -128.212341 382.234833
[Bip01_Head]
39 128.171936 128.412292 8.333418 1.938589 3.724703 -19.795940 181.623810
40 128.171936 128.412292 8.333418 1.938589 3.724703 -19.795940 181.623810
[eye_left_bone]
39 -24.626970 125.451866 -64.772606 0.000000 -90.000000 -99.840431 143.318359
40 -24.626970 125.451866 -64.772606 0.000000 -90.000000 -99.840431 143.318359
[eye_right_bone]
39 -24.626970 125.451866 64.327362 0.000000 -89.965736 80.156380 143.117676
40 -24.626970 125.451866 64.327362 0.000000 -89.965736 80.156380 143.117676
[L_forearm]
39 322.776093 0.000000 -0.000119 0.000368 -0.002318 -108.038628 322.776093
40 322.776093 0.000000 -0.000119 0.000373 -0.002317 -108.295113 322.776093
[L_front_hand]
39 241.149185 -0.042021 -3.300071 116.829514 -1.837068 -27.421745 241.171753
40 241.149185 -0.042021 -3.300071 115.903473 -1.833587 -27.423410 241.171753
[L_weapon_bone]
39 156.183838 0.000000 0.000000 0.000014 0.000007 0.000001 156.183838
40 156.183838 0.000000 0.000000 0.000014 0.000007 0.000001 156.183838
[L_front_hand01_01]
39 86.095154 20.947098 -0.655860 -0.366594 -0.477154 75.385574 88.609184
40 86.095154 20.947098 -0.655860 -0.366594 -0.477154 75.385574 88.609184
[L_front_hand02_01]
39 86.935165 -11.437475 24.513514 154.399796 -59.883835 -61.369587 91.046425
40 86.935165 -11.437475 24.513514 154.399796 -59.883835 -61.369587 91.046425
[L_front_hand03_01]
39 86.637497 -14.123976 -20.424902 -153.913849 58.118130 -62.702866 90.126129
40 86.637497 -14.123976 -20.424902 -153.913849 58.118122 -62.702866 90.126129
[L_front_hand01_02]
39 71.020905 -0.000179 0.000030 0.000334 -0.002323 -106.379684 71.020905
40 71.020905 -0.000179 0.000030 0.000334 -0.002323 -106.379684 71.020905
[L_front_hand02_02]
39 71.020927 -0.000119 0.000060 0.000334 -0.002323 -106.379684 71.020927
40 71.020927 -0.000119 0.000060 0.000334 -0.002323 -106.379684 71.020927
[L_front_hand03_02]
39 71.020905 -0.000060 0.000060 0.000334 -0.002323 -106.379684 71.020905
40 71.020905 -0.000060 0.000060 0.000334 -0.002323 -106.379684 71.020905
[R_forearm]
39 322.776428 -0.000060 0.000030 0.204489 0.053553 -105.421883 322.776428
40 322.776428 -0.000060 0.000030 0.204382 0.053958 -105.648788 322.776428
[R_front_hand]
39 238.847015 -0.006795 2.210259 -151.457932 -10.642442 -26.315422 238.857239
40 238.847015 -0.006795 2.210259 -150.535400 -10.644000 -26.315300 238.857239
[R_weapon_bone]
39 155.664093 0.002503 -0.000030 0.003487 0.001180 -90.988930 155.664078
40 155.664093 0.002503 -0.000030 0.003487 0.001180 -90.988930 155.664078
[R_front_hand01_01]
39 87.624611 14.231146 22.918642 -154.633499 -59.950619 61.746044 91.683487
40 87.624611 14.231146 22.918642 -154.633499 -59.950619 61.746044 91.683487
[R_front_hand02_01]
39 89.356956 14.367283 -19.491137 154.602661 58.302849 63.744389 92.579636
40 89.356956 14.367283 -19.491137 154.602661 58.302849 63.744389 92.579636
[R_front_hand03_01]
39 87.286232 -22.307278 -0.143439 0.162155 -0.423168 -75.767921 90.091743
40 87.286232 -22.307278 -0.143439 0.162155 -0.423168 -75.767921 90.091743
[R_front_hand01_02]
39 71.020905 0.000060 0.000119 0.002323 -0.000334 106.381714 71.020905
40 71.020905 0.000060 0.000119 0.002323 -0.000334 106.381714 71.020905
[R_front_hand02_02]
39 71.020844 -0.000030 -0.000119 0.002323 -0.000334 106.381714 71.020836
40 71.020844 -0.000030 -0.000119 0.002323 -0.000334 106.381714 71.020836
[R_front_hand03_02]
39 71.020905 0.000000 0.000030 0.002323 -0.000334 106.381714 71.020905
40 71.020905 0.000000 0.000030 0.002323 -0.000334 106.381714 71.020905
[null_rope01_connect]
39 328.732483 0.000000 -0.000238 -166.231216 26.298847 69.278114 328.732483
40 328.732483 0.000000 -0.000238 -166.231216 26.298847 69.278114 328.732483
[Rope1_Seg01]
39 0.000000 0.000000 0.000000 127.626945 -29.177219 -58.519920 0.000000
40 0.000000 0.000000 0.000000 127.099319 -28.435991 -58.487984 0.000000
[Rope1_Seg02]
39 139.999863 -0.000179 0.000000 -3.845177 -3.996055 -4.014388 139.999863
40 139.999863 -0.000179 0.000000 -3.806188 -3.974897 -4.016380 139.999863
[Rope1_Seg03]
39 139.999924 0.000060 -0.000060 -5.549270 -5.744595 -6.659763 139.999924
40 139.999924 0.000060 -0.000060 -5.478691 -5.699104 -6.630383 139.999924
[Rope1_Seg04]
39 139.999924 -0.000060 -0.000119 -7.666825 -8.497491 -11.948318 139.999924
40 139.999924 -0.000060 -0.000119 -7.475905 -8.260292 -11.789926 139.999924
[Rope1_Seg05]
39 139.999832 0.000119 -0.000060 -7.069444 -9.068337 -18.084389 139.999832
40 139.999832 0.000119 -0.000060 -6.905590 -8.819345 -17.725115 139.999832
[Rope1_Seg06]
39 139.999954 0.000119 -0.000060 -2.616220 -8.478813 -33.503735 139.999954
40 139.999954 0.000119 -0.000060 -2.455250 -9.857946 -34.443005 139.999954
[Rope1_Seg07]
39 139.999985 0.000060 0.000000 7.091260 -5.429774 -34.403816 139.999985
40 139.999985 0.000060 0.000000 7.398841 -6.550924 -34.655216 139.999985
[Rope1_Seg09]
39 121.602913 0.000119 -0.000089 -89.793175 -1.359789 0.847147 121.602913
40 121.602913 0.000119 -0.000089 -89.793175 -1.359789 0.847147 121.602913
[L_mid_hand01]
39 103.859421 1.038730 8.195221 109.056198 -40.604702 -13.201401 104.187431
40 103.859421 1.038730 8.195221 109.056198 -40.604698 -13.201401 104.187431
[L_mid_hand02]
39 105.572853 -4.139662 -10.864139 -146.713593 31.476517 -37.902306 106.211075
40 105.572853 -4.139662 -10.864139 -146.713593 31.476528 -37.902313 106.211075
[L_mid_hand03]
39 104.641464 17.579376 -3.913581 -14.267233 12.322316 43.898396 106.179977
40 104.641464 17.579376 -3.913581 -14.267233 12.322316 43.898396 106.179977
[null_rope02_connect]
39 328.732849 0.000179 -0.000119 -164.342651 -37.938038 110.680077 328.732849
40 328.732849 0.000179 -0.000119 -164.342651 -37.938038 110.680077 328.732849
[Rope2_Seg01]
39 -0.000038 -0.000114 0.000100 -58.886963 -35.851807 -116.673828 0.000157
40 -0.000038 -0.000114 0.000100 -58.483646 -35.505196 -117.152924 0.000157
[Rope2_Seg02]
39 139.999741 -0.000060 -0.000119 2.761750 2.598025 5.509579 139.999756
40 139.999741 -0.000060 -0.000119 2.687302 2.622627 5.453917 139.999756
[Rope2_Seg03]
39 140.000107 0.000030 0.000000 4.851114 4.953483 9.407581 140.000107
40 140.000107 0.000030 0.000000 4.685120 4.952452 9.260619 140.000107
[Rope2_Seg04]
39 139.999802 0.000000 -0.000060 10.014722 11.030845 19.359262 139.999802
40 139.999802 0.000000 -0.000060 9.596960 10.851580 18.971804 139.999802
[Rope2_Seg05]
39 139.999985 -0.000060 0.000119 11.448395 19.156355 25.408636 139.999985
40 139.999985 -0.000060 0.000119 11.167703 18.856216 25.258148 139.999985
[Rope2_Seg06]
39 139.999893 -0.000030 -0.000119 3.299746 23.678265 15.806876 139.999893
40 139.999893 -0.000030 -0.000119 3.212411 23.858271 15.635316 139.999893
[Rope2_Seg07]
39 139.999893 0.000060 -0.000060 -2.899298 19.557276 11.850277 139.999893
40 139.999893 0.000060 -0.000060 -3.054227 19.840963 11.725547 139.999893
[Rope2_Seg09]
39 121.338966 0.000089 -0.000060 33.793236 -1.359788 -0.847141 121.338966
40 121.338966 0.000089 -0.000060 33.793236 -1.359788 -0.847141 121.338966
[R_mid_hand01]
39 104.680779 11.144459 -10.335981 -37.204067 31.906805 37.576252 105.778534
40 104.680779 11.144459 -10.335981 -37.204079 31.906813 37.576260 105.778534
[R_mid_hand02]
39 104.070427 2.443552 8.231699 70.367462 -42.427391 14.067809 104.424065
40 104.070427 2.443552 8.231699 70.367455 -42.427380 14.067807 104.424065
[R_mid_hand03]
39 106.028137 -11.221827 -5.996406 -169.893616 12.226661 -47.211018 106.788818
40 106.028137 -11.221827 -5.996406 -169.893616 12.226661 -47.211018 106.788818
[spine02]
39 129.756927 0.001550 0.000119 -1.023899 -3.926965 6.770993 129.756927
40 129.756927 0.001550 0.000119 -1.023899 -3.926965 6.770993 129.756927
[spine03]
39 78.613846 0.087372 -4.898873 1.040681 4.146420 4.212376 78.766380
40 78.613846 0.087372 -4.898873 1.040681 4.146420 4.212376 78.766380
[pelvis]
39 169.435242 0.051022 0.000000 0.019518 -0.190233 -10.721436 169.435257
40 169.435242 0.051022 0.000000 0.019518 -0.190233 -10.721436 169.435257
[null_rope03_connect]
39 -1.257226 -2.466202 137.391083 21.146282 88.832657 -72.228729 137.418976
40 -1.257226 -2.466202 137.391083 21.146282 88.832657 -72.228729 137.418976
[null_rope04_connect]
39 -1.259640 -2.480268 -137.844437 21.146282 88.832657 -72.228729 137.872513
40 -1.259640 -2.480268 -137.844437 21.146282 88.832657 -72.228729 137.872513
[Rope3_Seg01]
39 0.000000 0.000000 0.000000 -137.901474 -30.478415 113.215233 0.000000
40 0.000000 0.000000 0.000000 -137.988052 -31.675072 112.628929 0.000000
[Rope3_Seg02]
39 139.999924 -0.000119 0.000060 4.634087 -14.125731 2.614646 139.999924
40 139.999924 -0.000119 0.000060 4.653588 -14.455831 2.849353 139.999924
[Rope3_Seg03]
39 139.999924 -0.000119 0.000119 5.757341 -13.521256 2.655058 139.999924
40 139.999924 -0.000119 0.000119 5.911061 -14.106777 3.152584 139.999924
[Rope3_Seg04]
39 139.999924 0.000119 0.000000 4.085129 -8.460133 0.319692 139.999924
40 139.999924 0.000119 0.000000 4.297226 -8.863536 0.978994 139.999924
[Rope3_Seg05]
39 139.999924 -0.000238 0.000060 6.794670 -9.853844 8.799296 139.999924
40 139.999924 -0.000238 0.000060 6.810159 -10.395664 8.979139 139.999924
[Rope3_Seg06]
39 139.999893 -0.000119 -0.000060 3.753000 -22.800360 42.103695 139.999893
40 139.999893 -0.000119 -0.000060 4.300593 -23.105120 39.241489 139.999893
[Rope3_Seg07]
39 139.999771 0.000060 -0.000119 -6.122226 -11.528775 32.541363 139.999771
40 139.999771 0.000060 -0.000119 -4.627573 -12.004210 30.683546 139.999771
[Rope3_Seg08]
39 139.999985 -0.000060 0.000000 -3.092944 -4.477052 9.992762 139.999985
40 139.999985 -0.000060 0.000000 -2.542293 -4.602050 10.107442 139.999985
[Rope3_Seg09]
39 90.185997 -0.000179 -0.000060 89.793228 -1.359877 -0.847183 90.185997
40 90.185997 -0.000179 -0.000060 89.793228 -1.359877 -0.847183 90.185997
[R_rear_hand01]
39 103.366196 -6.073594 -10.757982 -164.755127 19.627697 -40.352161 104.101845
40 103.366196 -6.073594 -10.757982 -164.755127 19.627697 -40.352161 104.101845
[R_rear_hand02]
39 100.509819 12.039542 -7.992327 -30.792652 24.782448 38.141541 101.543350
40 100.509819 12.039542 -7.992327 -30.792652 24.782448 38.141541 101.543350
[R_rear_hand03]
39 101.539970 5.215704 5.435467 82.448349 -41.048256 8.840378 101.819031
40 101.539970 5.215704 5.435467 82.448349 -41.048256 8.840378 101.819031
[Rope4_Seg01]
39 0.000010 0.000038 -0.000114 64.121407 -34.524094 54.620617 0.000121
40 0.000010 0.000038 -0.000114 64.168068 -35.049965 55.024483 0.000121
[Rope4_Seg02]
39 139.999985 0.000060 0.000119 -5.019444 5.081266 -7.882833 139.999985
40 139.999985 0.000060 0.000119 -5.085019 5.162572 -8.093452 139.999985
[Rope4_Seg03]
39 139.999924 0.000000 -0.000238 -6.623072 8.223328 -10.754913 139.999924
40 139.999924 0.000000 -0.000238 -6.777858 8.458005 -11.156538 139.999924
[Rope4_Seg04]
39 139.999985 0.000000 0.000119 -4.797915 12.420918 -7.974871 139.999985
40 139.999985 0.000000 0.000119 -5.057688 12.666251 -8.735551 139.999985
[Rope4_Seg05]
39 139.999802 -0.000060 -0.000119 -4.361759 11.334771 -12.674664 139.999802
40 139.999802 -0.000060 -0.000119 -4.293751 11.575041 -12.764370 139.999802
[Rope4_Seg06]
39 139.999924 0.000000 0.000060 -11.288478 18.793400 -39.158642 139.999924
40 139.999924 0.000000 0.000060 -10.586946 19.658344 -38.274246 139.999924
[Rope4_Seg07]
39 139.999802 0.000000 0.000000 -4.140530 16.041510 -25.798702 139.999802
40 139.999802 0.000000 0.000000 -3.429862 16.550432 -25.868624 139.999802
[Rope4_Seg08]
39 139.999924 0.000000 0.000119 -1.457851 5.772187 -8.061525 139.999924
40 139.999924 0.000000 0.000119 -1.167055 5.836247 -8.206386 139.999924
[Rope4_Seg09]
39 90.185791 0.000060 0.000060 -135.617828 2.228885 0.850567 90.185791
40 90.185791 0.000060 0.000060 -135.617828 2.228885 0.850567 90.185791
[L_rear_hand01]
39 101.696655 -8.392275 -7.654577 -31.684452 -23.583008 144.025742 102.329041
40 101.696655 -8.392275 -7.654577 -31.684452 -23.583008 144.025742 102.329041
[L_rear_hand02]
39 102.726799 -1.568258 5.773216 82.701546 38.753956 171.553619 102.900848
40 102.726799 -1.568258 5.773216 82.701553 38.753956 171.553619 102.900848
[L_rear_hand03]
39 104.552910 9.721220 -10.420293 -163.975388 -19.004417 -142.009323 105.519653
40 104.552910 9.721220 -10.420293 -163.975403 -19.004421 -142.009338 105.519653
